<svg width="90" height="121" viewBox="0 0 90 121" fill="none" xmlns="http://www.w3.org/2000/svg">
<circle cx="48.5543" cy="79.2157" r="41" fill="#19376D"/>
<circle cx="53.5543" cy="74.2157" r="36" fill="#264986"/>
<path d="M23.1407 79.6687L14.9728 91.3921C14.9728 94.447 10.8357 95.3894 9.51263 92.6358L3.83992 80.8294C2.77894 78.6212 3.47416 75.9695 5.48205 74.5659L51.7317 42.2361C52.8603 41.4472 54.2642 41.1586 55.6124 41.4384L78.2158 46.1297C79.3615 46.3675 80.3724 47.0354 81.0406 47.9959L82.4342 49.9991C84.3636 52.7727 81.8224 56.4556 78.5446 55.6362L77.3463 55.3366C75.6465 54.9116 74 56.1972 74 57.9493C74 59.7326 72.298 61.0234 70.5808 60.5426L65.9443 59.2444C63.4344 58.5416 60.8056 59.8849 59.9045 62.3307L59.5107 63.3997C58.6455 65.748 56.1773 67.095 53.7343 66.5521L49.2183 65.5485C46.587 64.9638 43.9658 66.5701 43.2922 69.1801L41.675 75.447C41.0147 78.0055 38.4777 79.6086 35.8835 79.1065L28.1933 77.6181C26.2517 77.2423 24.2712 78.0461 23.1407 79.6687Z" fill="#A5D7E8"/>
<path d="M84.9608 46.1035C85.8907 46.6058 85.5033 48.0687 84.4465 48.0811C44.2071 48.5531 20.7747 75.7202 2.83423 90.2026C2.15038 90.7546 1.1524 90.2221 1.24125 89.3477C2.11336 80.7645 5.13472 50.5255 5.56181 39.4213C5.9767 28.634 3.11765 9.42865 2.13233 3.20317C2.00216 2.38069 2.87611 1.77271 3.6088 2.16841L84.9608 46.1035Z" fill="#576CBC"/>
<path d="M84.2214 44.8836C85.159 45.3811 84.7658 46.8526 83.7044 46.8622C53.0805 47.1376 35.7252 62.1678 21.962 73.3C21.3541 73.7917 20.4484 73.4416 20.354 72.6654C19.512 65.7393 16.5137 40.2523 16.8514 31.2157C17.1361 23.5964 8.71482 11.0094 4.07344 4.67739C3.42972 3.7992 4.47434 2.57207 5.43619 3.0824L84.2214 44.8836Z" fill="#6B80D1"/>
<path d="M65.0544 80.7157C68.2544 80.3157 66.3877 75.5491 65.0544 73.2157L59.5544 78.2157C60.0544 79.2157 61.8544 81.1157 65.0544 80.7157Z" fill="#19376D"/>
<path d="M82.9244 70.0901C85.5499 70.5645 85.1427 66.5876 84.6109 64.5399L79.1288 66.9159C79.3001 67.7763 80.299 69.6157 82.9244 70.0901Z" fill="#19376D"/>
<ellipse cx="63.6198" cy="74.7754" rx="2" ry="3" transform="rotate(-24.5435 63.6198 74.7754)" fill="#6B80D1"/>
<ellipse cx="80.6198" cy="65.7754" rx="2" ry="3" transform="rotate(-24.5435 80.6198 65.7754)" fill="#6B80D1"/>
<path d="M29.0696 88.0438C31.0164 94.0893 32.9289 98.8825 26.8834 100.829C20.8378 102.776 14.9718 101.357 13.025 95.3116C11.0782 89.2661 14.4009 82.787 20.4464 80.8402C26.492 78.8934 27.1228 81.9982 29.0696 88.0438Z" fill="url(#paint0_linear_3_14)"/>
<mask id="mask0_3_14" style="mask-type:alpha" maskUnits="userSpaceOnUse" x="72" y="78" width="12" height="10">
<path d="M72.5001 82.8921C72.5051 80.8431 83.0272 78 83.0272 78C83.0272 78 83.6845 84.8374 81.5272 87C79.37 89.1626 72.495 84.9411 72.5001 82.8921Z" fill="#6B80D1"/>
</mask>
<g mask="url(#mask0_3_14)">
<path d="M72.5001 82.8921C72.5051 80.8431 83.0272 78 83.0272 78C83.0272 78 83.6845 84.8374 81.5272 87C79.37 89.1626 72.495 84.9411 72.5001 82.8921Z" fill="#19376D"/>
<path d="M82.5 85.5C82.5 87.433 80.4853 89 78 89C75.5147 89 71.5 85.933 71.5 84C71.5 82.067 75.5147 82 78 82C80.4853 82 82.5 83.567 82.5 85.5Z" fill="#6B80D1"/>
</g>
<defs>
<linearGradient id="paint0_linear_3_14" x1="14.5" y1="92" x2="30" y2="84.5" gradientUnits="userSpaceOnUse">
<stop stop-color="#2C5296"/>
<stop offset="1" stop-color="#264986"/>
</linearGradient>
</defs>
</svg>
