<svg width="58" height="74" viewBox="0 0 58 74" fill="none" xmlns="http://www.w3.org/2000/svg">
<mask id="mask0_17_41" style="mask-type:alpha" maskUnits="userSpaceOnUse" x="0" y="0" width="58" height="74">
<path d="M0 0H57.3877V74H0V0Z" fill="#D9D9D9"/>
</mask>
<g mask="url(#mask0_17_41)">
<path d="M2.32166 68.5365C17.2272 77.7349 36.6245 73.3399 45.6466 58.72C54.6688 44.1 49.8993 24.7915 34.9938 15.593C20.0882 6.39462 0.690999 10.7896 -8.33116 25.4096C-17.3533 40.0295 -12.5839 59.3381 2.32166 68.5365Z" fill="#19376D"/>
<path d="M6.03078 67.9536C19.1619 76.057 36.2287 72.2196 44.1506 59.3826C52.0725 46.5456 47.8496 29.5701 34.7185 21.4667C21.5874 13.3633 4.52061 17.2007 -3.40128 30.0377C-11.3232 42.8747 -7.1003 59.8503 6.03078 67.9536Z" fill="#264986"/>
<path d="M18.2566 32.7844L14.8511 36.0284C13.3684 37.4407 10.9878 37.2559 9.74115 35.6317C8.08119 33.4691 4.68458 34.0002 3.76485 36.5662L3.59056 37.0525C2.8572 39.0986 0.53415 40.085 -1.44848 39.1923L-9.22656 35.6903L-12.0235 40.2203C-12.5097 41.0077 -13.7264 40.5554 -13.5796 39.6418L-12.0952 25.4403L-11.2299 17.6367C-11.0535 16.0458 -9.89259 14.7391 -8.33296 14.3757L-7.54431 14.1919C-6.2846 13.8984 -5.26273 12.9811 -4.83595 11.7607L-3.17281 7.00484C-3.08276 6.7472 -2.9649 6.50006 -2.82151 6.26779L-0.712409 2.85178C0.60577 0.716885 3.60212 0.436819 5.29336 2.29052L7.9409 5.1923C9.21307 6.5866 11.3199 6.828 12.8748 5.75757L15.1418 4.19692C16.8484 3.02206 19.1833 3.44077 20.375 5.13521L21.293 6.44071C22.3493 7.94291 24.3339 8.4677 25.9953 7.68414L27.5075 6.97102C28.8758 6.32578 30.4973 6.55873 31.6283 7.56309L34.9938 10.5516C36.2118 11.6332 37.9864 11.8123 39.3961 10.9961L41.1707 9.96862C43.2726 8.75162 45.9608 9.80522 46.6748 12.1257L48.6055 18.4008C48.8748 19.2759 49.4529 20.0233 50.2323 20.504L54.8388 23.3453C56.9723 24.6614 57.2549 27.6517 55.4052 29.3436L52.5585 31.9473C51.8033 32.638 51.4014 33.6332 51.4654 34.6544L51.5614 36.1867C51.7241 38.7829 48.5742 40.1873 46.75 38.332L46.0713 37.6419C45.1375 36.6921 43.56 36.8694 42.8603 38.0025C42.1484 39.1557 40.5333 39.3144 39.6102 38.3222L36.9852 35.5006C35.6536 34.0693 33.4493 33.8903 31.9041 35.088L31.1342 35.6847C29.65 36.8351 27.5456 36.7208 26.1947 35.4165L23.4873 32.8021C22.0305 31.3954 19.7229 31.3876 18.2566 32.7844Z" fill="#A5D7E8"/>
<path d="M27.7394 49.0786C29.8686 50.1161 30.5041 46.2826 30.5557 44.2361L25.2766 45.2371C25.2104 46.0852 25.6101 48.0411 27.7394 49.0786Z" fill="#19376D"/>
<path d="M43.8101 49.4546C45.2979 50.8244 46.5756 48.0917 47.0286 46.5544L42.6208 45.8683C42.3974 46.4932 42.3224 48.0856 43.8101 49.4546Z" fill="#19376D"/>
<path d="M29.0186 46.9252C29.8455 47.0338 30.6366 46.1071 30.7854 44.8553C30.9343 43.6035 30.3846 42.5007 29.5577 42.392C28.7307 42.2833 27.9396 43.21 27.7908 44.4618C27.6419 45.7136 28.1916 46.8165 29.0186 46.9252Z" fill="#6B80D1"/>
<path d="M43.7604 47.9988C44.5874 48.1074 45.3784 47.1807 45.5273 45.9289C45.6762 44.6771 45.1265 43.5743 44.2995 43.4656C43.4726 43.3569 42.6815 44.2836 42.5326 45.5354C42.3838 46.7872 42.9335 47.8901 43.7604 47.9988Z" fill="#6B80D1"/>
<path d="M1.19109 39.2371C0.0734715 43.9289 -0.57329 47.7979 -5.25898 46.6068C-9.9446 45.4155 -13.189 42.1238 -12.0714 37.4321C-10.9538 32.7404 -6.24941 29.9027 -1.56379 31.094C3.12182 32.2854 2.30864 34.5455 1.19109 39.2371Z" fill="url(#paint0_linear_17_41)"/>
<path d="M31.9101 53.499C32.7352 52.1783 40.8257 54.6037 40.8257 54.6037C40.8257 54.6037 38.5177 59.2846 36.2254 59.8071C33.9331 60.3296 31.085 54.8196 31.9101 53.499Z" fill="#6B80D1"/>
<path d="M31.9101 53.499C32.7352 52.1783 40.8257 54.6037 40.8257 54.6037C40.8257 54.6037 38.5177 59.2846 36.2254 59.8071C33.9331 60.3296 31.085 54.8196 31.9101 53.499Z" fill="#19376D"/>
<path d="M37.4696 59.2325C36.6943 60.4806 34.735 60.6762 33.0935 59.6697C31.4518 58.6631 30.03 55.0575 30.8052 53.8093C31.5804 52.5611 34.2592 54.1438 35.9008 55.1504C37.5424 56.1569 38.2447 57.9843 37.4696 59.2325Z" fill="#6B80D1"/>
</g>
<defs>
<linearGradient id="paint0_linear_17_41" x1="-1.44755" y1="23.9562" x2="62.1813" y2="30.5042" gradientUnits="userSpaceOnUse">
<stop stop-color="#2C5296"/>
<stop offset="1" stop-color="#264986"/>
</linearGradient>
</defs>
</svg>
